HIERARCHY
ROOT Hips
{
 OFFSET 0.000000 0.000000 0.000000
 CHANNELS 6 Xposition Yposition Zposition Yrotation Xrotation Zrotation
 JOINT Chest
 {
  OFFSET 0.000000 9.585900 0.002600
  CHANNELS 3 Yrotation Xrotation Zrotation
  JOINT Chest2
  {
   OFFSET 0.000000 9.601200 -0.005300
   CHANNELS 3 Yrotation Xrotation Zrotation
   JOINT Chest3
   {
    OFFSET 0.000000 9.561800 0.000000
    CHANNELS 3 Yrotation Xrotation Zrotation
    JOINT Chest4
    {
     OFFSET 0.000000 9.552100 0.000000
     CHANNELS 3 Yrotation Xrotation Zrotation
     JOINT Neck
     {
      OFFSET 0.000000 14.453000 0.000000
      CHANNELS 3 Yrotation Xrotation Zrotation
      JOINT Head
      {
       OFFSET 0.000000 8.936500 -0.011300
       CHANNELS 3 Yrotation Xrotation Zrotation
       End Site
       {
        OFFSET 0.000000 17.073600 -0.006000
       }
      }
     }
     JOINT RightCollar
     {
      OFFSET -2.921100 9.558500 0.000000
      CHANNELS 3 Yrotation Xrotation Zrotation
      JOINT RightShoulder
      {
       OFFSET -13.519700 0.000000 0.000000
       CHANNELS 3 Yrotation Xrotation Zrotation
       JOINT RightElbow
       {
        OFFSET 0.000000 -29.696600 0.000000
        CHANNELS 3 Yrotation Xrotation Zrotation
        JOINT RightWrist
        {
         OFFSET 0.000000 -24.004700 0.000000
         CHANNELS 3 Yrotation Xrotation Zrotation
         End Site
         {
          OFFSET 0.000000 -17.728500 0.000000
         }
        }
       }
      }
     }
     JOINT LeftCollar
     {
      OFFSET 2.921100 9.558500 0.000000
      CHANNELS 3 Yrotation Xrotation Zrotation
      JOINT LeftShoulder
      {
       OFFSET 13.519700 0.000000 0.000000
       CHANNELS 3 Yrotation Xrotation Zrotation
       JOINT LeftElbow
       {
        OFFSET 0.000000 -29.696600 0.000000
        CHANNELS 3 Yrotation Xrotation Zrotation
        JOINT LeftWrist
        {
         OFFSET 0.000000 -24.004700 0.000000
         CHANNELS 3 Yrotation Xrotation Zrotation
         End Site
         {
          OFFSET 0.000000 -17.728500 0.000000
         }
        }
       }
      }
     }
    }
   }
  }
 }
 JOINT RightHip
 {
  OFFSET -7.771700 -0.012900 -0.001300
  CHANNELS 3 Yrotation Xrotation Zrotation
  JOINT RightKnee
  {
   OFFSET 0.000000 -40.869800 0.001200
   CHANNELS 3 Yrotation Xrotation Zrotation
   JOINT RightAnkle
   {
    OFFSET 0.000000 -39.717900 0.002100
    CHANNELS 3 Yrotation Xrotation Zrotation
    JOINT RightToe
    {
     OFFSET 0.000000 -4.965400 11.033500
     CHANNELS 3 Yrotation Xrotation Zrotation
     End Site
     {
      OFFSET 0.000000 -1.423100 5.872300
     }
    }
   }
  }
 }
 JOINT LeftHip
 {
  OFFSET 7.771700 -0.012900 -0.001300
  CHANNELS 3 Yrotation Xrotation Zrotation
  JOINT LeftKnee
  {
   OFFSET 0.000000 -40.869800 0.001200
   CHANNELS 3 Yrotation Xrotation Zrotation
   JOINT LeftAnkle
   {
    OFFSET 0.000000 -39.717900 0.002100
    CHANNELS 3 Yrotation Xrotation Zrotation
    JOINT LeftToe
    {
     OFFSET 0.000000 -4.965400 11.033500
     CHANNELS 3 Yrotation Xrotation Zrotation
     End Site
     {
      OFFSET 0.000000 -1.423100 5.872300
     }
    }
   }
  }
 }
}
MOTION
Frames: 11
Frame Time: 0.008333
-41.920879 57.938298 12.181217 177.560182 -51.112845 -3.964315 3.621498 22.433932 3.414002 1.877449 12.849232 1.769430 2.455657 16.049893 2.300187 1.880682 12.849957 1.774981 1.374631 15.063951 6.414748 0.197307 -7.690564 11.484728 1.484866 2.605317 1.201416 2.647138 -12.806800 -12.689385 -35.771271 -10.528943 115.140215 -15.287326 -8.502182 -24.438918 -9.793121 -0.523283 -0.376182 -0.937240 -8.535026 12.789614 41.728621 -30.018300 -106.564658 16.322003 -4.807369 11.665694 3.716475 -20.355377 -2.320592 -32.850841 73.338362 -36.448988 6.084006 -13.541504 11.432016 0.028885 0.065012 0.068152 -7.756362 -17.698737 6.023726 87.201526 80.973707 87.126161 1.288443 -21.567715 -19.219342 -0.039852 -0.000412 0.001343
-41.921757 57.936623 12.179313 177.564632 -51.109666 -3.964139 3.628828 22.430218 3.418254 1.880834 12.848580 1.769442 2.452283 16.047237 2.300736 1.884491 12.850761 1.775100 1.382594 15.045594 6.385195 0.190001 -7.700574 11.476140 1.473938 2.607936 1.192306 2.656741 -12.837209 -12.673466 -35.849952 -10.744811 115.070394 -15.119968 -8.167222 -24.189359 -9.790712 -0.523675 -0.367698 -0.933833 -8.536875 12.792114 41.918470 -30.256491 -106.523121 16.225621 -4.767247 11.786281 3.721019 -20.358515 -2.315333 -32.882315 73.338909 -36.481763 6.071842 -13.565075 11.416361 0.042965 0.064027 0.072055 -7.743441 -17.704087 6.027005 87.180510 80.973453 87.105284 1.283629 -21.566962 -19.220981 -0.043549 0.002182 0.008867
-41.923333 57.934913 12.177887 177.572168 -51.105302 -3.963640 3.628811 22.425256 3.417460 1.884339 12.848059 1.769949 2.451970 16.043292 2.299295 1.885869 12.850510 1.776778 1.384649 15.035455 6.363601 0.210755 -7.726581 11.426945 1.462655 2.619444 1.180812 2.658685 -12.858494 -12.655745 -35.917140 -10.958082 115.006539 -14.957265 -7.807083 -23.937161 -9.759612 -0.510286 -0.362666 -0.958388 -8.549805 12.793601 42.099564 -30.482009 -106.482255 16.168921 -4.728567 11.954218 3.724225 -20.361398 -2.311803 -32.867048 73.348415 -36.482738 6.064149 -13.592608 11.414571 0.037795 0.062091 0.069347 -7.728728 -17.714312 6.026781 87.174897 80.976047 87.106081 1.272678 -21.563635 -19.216273 -0.041375 -0.000300 0.010123
-41.927603 57.934392 12.175566 177.588915 -51.109763 -3.955130 3.612338 22.431077 3.396727 1.890543 12.845330 1.772161 2.450434 16.041830 2.295582 1.884330 12.849522 1.777301 1.389379 15.030532 6.345935 0.230133 -7.744306 11.382894 1.455288 2.632913 1.173419 2.661856 -12.880011 -12.640781 -35.975021 -11.159108 114.939051 -14.795176 -7.414676 -23.689038 -9.749739 -0.503020 -0.361459 -0.935738 -8.559253 12.790522 42.249086 -30.702734 -106.429560 16.139365 -4.701036 12.172212 3.737001 -20.354691 -2.315806 -32.900468 73.362781 -36.545807 6.053457 -13.627416 11.432991 0.024077 0.055696 0.064369 -7.729891 -17.713038 6.004392 87.172046 80.974242 87.100959 1.270854 -21.561604 -19.219681 -0.042180 -0.001456 0.011862
-41.929772 57.934193 12.173569 177.596644 -51.115495 -3.953151 3.611415 22.432931 3.392360 1.890812 12.845072 1.771342 2.452785 16.043297 2.292893 1.883137 12.847221 1.778545 1.392866 15.028464 6.327985 0.246501 -7.759704 11.339829 1.448115 2.640617 1.175978 2.640687 -12.915816 -12.620162 -35.996451 -11.343748 114.852301 -14.629092 -6.988340 -23.454585 -9.743274 -0.497277 -0.358878 -0.883032 -8.566792 12.774138 42.358688 -30.925637 -106.363929 16.133463 -4.705211 12.447342 3.749753 -20.348676 -2.307145 -32.963818 73.366775 -36.619964 6.047451 -13.654078 11.427610 0.020708 0.050470 0.067648 -7.719971 -17.709064 6.008024 87.170841 80.969950 87.090233 1.247240 -21.562163 -19.205116 -0.034269 -0.002391 0.007463
-41.931701 57.934118 12.171655 177.611296 -51.121255 -3.958534 3.618816 22.432697 3.395230 1.882829 12.846154 1.770109 2.450906 16.047442 2.290614 1.893247 12.847546 1.765929 1.387108 15.024940 6.338219 0.254908 -7.766939 11.312631 1.434674 2.650772 1.177876 2.623033 -12.938584 -12.593649 -36.031187 -11.536943 114.778146 -14.465325 -6.537579 -23.246223 -9.745902 -0.492547 -0.339279 -0.862243 -8.572811 12.765310 42.489159 -31.129799 -106.294818 16.152268 -4.750018 12.792045 3.754225 -20.340829 -2.298480 -33.014307 73.370975 -36.681370 6.038866 -13.682525 11.421833 0.018375 0.047883 0.069100 -7.708097 -17.705898 6.016105 87.145523 80.981846 87.067032 1.225136 -21.560653 -19.191682 -0.026811 -0.005366 0.012272
-41.934126 57.933746 12.169977 177.618085 -51.124675 -3.955076 3.617656 22.436756 3.389192 1.886541 12.845746 1.767050 2.450075 16.050484 2.289006 1.893641 12.848330 1.763522 1.388187 15.019203 6.336856 0.254088 -7.769194 11.313706 1.424814 2.655553 1.169501 2.587232 -12.990602 -12.560681 -36.029245 -11.721087 114.683099 -14.320625 -6.088942 -23.087646 -9.744553 -0.493607 -0.327796 -0.838585 -8.578948 12.753281 42.611544 -31.313514 -106.227203 16.190471 -4.829586 13.207932 3.763634 -20.336166 -2.295933 -33.053904 73.374703 -36.727530 6.030521 -13.708581 11.409544 0.015950 0.046739 0.072233 -7.706720 -17.703763 6.009703 87.140827 80.978603 87.055267 1.219017 -21.559773 -19.184383 -0.026009 -0.004357 0.008384
-41.937325 57.932785 12.168703 177.637702 -51.122527 -3.957068 3.601769 22.436425 3.375965 1.899313 12.851126 1.764098 2.445326 16.049266 2.287724 1.892741 12.847572 1.763688 1.390886 15.016399 6.320463 0.265037 -7.777085 11.286642 1.411538 2.662919 1.146891 2.580490 -13.021573 -12.527464 -36.058841 -11.934902 114.603022 -14.202593 -5.682892 -23.001303 -9.742835 -0.494800 -0.317665 -0.818058 -8.587057 12.739007 42.729202 -31.475139 -106.160237 16.258348 -4.932390 13.671871 3.779396 -20.335174 -2.285949 -33.133791 73.375032 -36.813446 5.998987 -13.736378 11.406836 0.022275 0.055544 0.088109 -7.705559 -17.709019 6.006154 87.092272 80.977463 86.997906 1.199401 -21.553516 -19.168239 -0.025890 -0.002844 0.006975
-41.939446 57.931955 12.167495 177.641707 -51.120940 -3.953287 3.603711 22.438729 3.371856 1.901159 12.850807 1.763015 2.440535 16.047744 2.287470 1.892929 12.847681 1.762906 1.394107 15.016989 6.300857 0.294845 -7.776429 11.200895 1.406979 2.662453 1.144088 2.579411 -13.034827 -12.520888 -36.098618 -12.175754 114.521259 -14.107413 -5.354299 -22.991779 -9.727602 -0.492427 -0.313445 -0.812315 -8.598013 12.722868 42.847298 -31.624000 -106.089552 16.375757 -5.048595 14.154485 3.791460 -20.336989 -2.278728 -33.161421 73.388049 -36.857231 5.987082 -13.775619 11.390762 0.017532 0.057017 0.097340 -7.695464 -17.712614 6.005801 87.077233 80.984556 86.986267 1.195713 -21.551161 -19.168612 -0.017104 -0.004121 0.006623
-41.939175 57.931130 12.166691 177.641329 -51.117836 -3.960444 3.620486 22.439191 3.386406 1.899555 12.847454 1.761561 2.433224 16.048242 2.287367 1.893221 12.847992 1.762281 1.406939 15.021803 6.260958 0.295951 -7.781067 11.190373 1.403196 2.661295 1.142501 2.579800 -13.040138 -12.515209 -36.155779 -12.452578 114.431085 -14.031581 -5.105946 -23.046691 -9.720511 -0.491470 -0.318142 -0.802855 -8.605547 12.712418 42.964145 -31.773108 -106.017828 16.540751 -5.176637 14.652600 3.800770 -20.341891 -2.261501 -33.201834 73.390120 -36.898555 5.988601 -13.798635 11.375429 0.020601 0.052005 0.094709 -7.685577 -17.716427 6.025016 87.064677 80.997012 86.978548 1.187217 -21.550504 -19.165231 -0.008449 -0.006073 0.009036
-41.942416 57.930167 12.165708 177.651330 -51.113520 -3.954582 3.615307 22.437180 3.376346 1.901452 12.845026 1.757366 2.441408 16.050650 2.290247 1.894049 12.847242 1.761093 1.400894 15.020475 6.242151 0.296563 -7.780254 11.191410 1.390886 2.659390 1.142640 2.589773 -13.053275 -12.512457 -36.247959 -12.748367 114.321164 -13.972879 -4.903622 -23.141480 -9.735372 -0.490855 -0.317451 -0.782710 -8.608349 12.696689 43.068301 -31.928806 -105.941101 16.727055 -5.323943 15.173341 3.805452 -20.345701 -2.272062 -33.219138 73.395375 -36.919449 5.984194 -13.817687 11.367637 0.016786 0.056558 0.099358 -7.683662 -17.723265 6.015728 87.044323 80.993984 86.947368 1.182184 -21.546859 -19.152714 -0.014539 -0.003668 0.007920
